<?xml version="1.0" encoding="utf-8"?>
<!-- Generator: Adobe Illustrator 16.0.0, SVG Export Plug-In . SVG Version: 6.00 Build 0)  -->
<!DOCTYPE svg PUBLIC "-//W3C//DTD SVG 1.1//EN" "http://www.w3.org/Graphics/SVG/1.1/DTD/svg11.dtd">
<svg version="1.1" id="Layer_1" xmlns="http://www.w3.org/2000/svg" xmlns:xlink="http://www.w3.org/1999/xlink" x="0px" y="0px"
	 width="841.89px" height="595.28px" viewBox="0 0 841.89 595.28" enable-background="new 0 0 841.89 595.28" xml:space="preserve">
<g>
	<path fill="none" stroke="#000000" stroke-miterlimit="10" d="M261.188,110.233h8.491c0.609,0,1.102,0.494,1.102,1.103v15.921
		c0,0.609-0.493,1.103-1.102,1.103h-8.491c-0.609,0-1.103-0.493-1.103-1.103v-15.921
		C260.085,110.728,260.579,110.233,261.188,110.233z"/>
	<path fill="none" stroke="#000000" stroke-miterlimit="10" d="M261.219,150.371c-0.628,0-1.134,0.505-1.134,1.133v32.465
		c0,0.628,0.506,1.135,1.134,1.135h8.735c0.628,0,1.134-0.507,1.134-1.135v-32.465c0-0.628-0.506-1.133-1.134-1.133H261.219z"/>
	<g>
		<defs>
			<path id="SVGID_1_" d="M261.219,150.371c-0.628,0-1.134,0.505-1.134,1.133v32.465c0,0.628,0.506,1.135,1.134,1.135h8.735
				c0.628,0,1.134-0.507,1.134-1.135v-32.465c0-0.628-0.506-1.133-1.134-1.133H261.219z"/>
		</defs>
		<clipPath id="SVGID_2_">
			<use xlink:href="#SVGID_1_"  overflow="visible"/>
		</clipPath>
		<use xlink:href="#SVGID_1_"  overflow="visible" fill="none" stroke="#000000" stroke-miterlimit="10"/>
	</g>
	<path fill="none" stroke="#000000" stroke-miterlimit="10" d="M261.219,193.712c-0.628,0-1.134,0.505-1.134,1.133v32.465
		c0,0.628,0.506,1.134,1.134,1.134h8.735c0.628,0,1.134-0.506,1.134-1.134v-32.465c0-0.628-0.506-1.133-1.134-1.133H261.219z"/>
	<path fill="none" stroke="#000000" stroke-miterlimit="10" d="M492.058,185.089c0.629,0,1.135-0.505,1.135-1.133v-32.465
		c0-0.628-0.506-1.134-1.135-1.134h-8.734c-0.628,0-1.135,0.506-1.135,1.134v32.465c0,0.628,0.507,1.133,1.135,1.133H492.058z"/>
	<g>
		<defs>
			<path id="SVGID_3_" d="M492.058,185.089c0.629,0,1.135-0.505,1.135-1.133v-32.465c0-0.628-0.506-1.134-1.135-1.134h-8.734
				c-0.628,0-1.135,0.506-1.135,1.134v32.465c0,0.628,0.507,1.133,1.135,1.133H492.058z"/>
		</defs>
		<clipPath id="SVGID_4_">
			<use xlink:href="#SVGID_3_"  overflow="visible"/>
		</clipPath>
		<g clip-path="url(#SVGID_4_)">
			<path fill="none" stroke="#000000" stroke-miterlimit="10" d="M491.816,184.078c0.561,0,1.011-0.451,1.011-1.011V152.38
				c0-0.561-0.45-1.011-1.011-1.011h-4.586v32.709H491.816z"/>
		</g>
		<use xlink:href="#SVGID_3_"  overflow="visible" fill="none" stroke="#000000" stroke-miterlimit="10"/>
	</g>
	<path fill="#FFFFFF" stroke="#000000" stroke-miterlimit="10" d="M296.743,49.883h159.791c18.95,0,34.313,15.362,34.313,34.313
		v402.876c0,18.951-15.362,34.313-34.313,34.313H296.743c-18.951,0-34.313-15.361-34.313-34.313V84.195
		C262.43,65.245,277.792,49.883,296.743,49.883z"/>
	<path fill="#FBFCFE" d="M298.486,55.146h156.305c16.974,0,30.733,13.759,30.733,30.732v399.509
		c0,16.974-13.76,30.733-30.733,30.733H298.486c-16.973,0-30.732-13.76-30.732-30.733V85.879
		C267.753,68.905,281.513,55.146,298.486,55.146z"/>
	<path fill="#FFFFFF" d="M298.486,55.146c-17.025,0-30.733,13.706-30.733,30.732v399.509c0,17.025,13.707,30.733,30.733,30.733
		h3.337c-17.026,0-30.733-13.708-30.733-30.733V85.879c0-17.026,13.708-30.732,30.733-30.732H298.486z M451.453,55.146
		c17.025,0,30.733,13.706,30.733,30.732v399.509c0,17.025-13.708,30.733-30.733,30.733h3.337c17.026,0,30.733-13.708,30.733-30.733
		V85.879c0-17.026-13.707-30.732-30.733-30.732H451.453z"/>
	<circle fill="none" stroke="#000000" stroke-miterlimit="10" cx="376.639" cy="489.878" r="17.74"/>
	<g>
		<defs>
			<circle id="SVGID_5_" cx="376.639" cy="489.878" r="17.74"/>
		</defs>
		<clipPath id="SVGID_6_">
			<use xlink:href="#SVGID_5_"  overflow="visible"/>
		</clipPath>
		<use xlink:href="#SVGID_5_"  overflow="visible" fill="none" stroke="#000000" stroke-miterlimit="10"/>
	</g>
	<circle fill="none" stroke="#000000" stroke-miterlimit="10" cx="376.639" cy="489.878" r="15.79"/>
	
		<linearGradient id="SVGID_7_" gradientUnits="userSpaceOnUse" x1="450.3887" y1="970.9424" x2="455.2005" y2="966.4397" gradientTransform="matrix(1.2219 0 0 -1.2219 -212.9443 1264.4121)">
		<stop  offset="0" style="stop-color:#1D1619"/>
		<stop  offset="1" style="stop-color:#191816"/>
	</linearGradient>
	<path fill="url(#SVGID_7_)" d="M344.355,80.761c0,2.223-1.802,4.025-4.026,4.025s-4.026-1.803-4.026-4.025
		c0-2.224,1.802-4.026,4.026-4.026S344.355,78.537,344.355,80.761z"/>
	<path fill="#010202" d="M342.91,80.882c0,1.472-1.193,2.665-2.665,2.665c-1.471,0-2.664-1.193-2.664-2.665
		c0-1.471,1.193-2.664,2.664-2.664C341.717,78.218,342.91,79.411,342.91,80.882z"/>
	<path fill="#1D2444" d="M342.735,80.882c0.001,1.376-1.112,2.491-2.487,2.493c-1.375,0.001-2.491-1.112-2.492-2.487
		c0-0.002,0-0.004,0-0.006c-0.001-1.374,1.112-2.49,2.487-2.491s2.491,1.111,2.492,2.487
		C342.735,80.879,342.735,80.881,342.735,80.882z"/>
	<path opacity="0.75" fill="#232323" stroke="#565656" stroke-width="0.5748" enable-background="new    " d="M341.784,80.795
		c-0.002,0.826-0.674,1.493-1.499,1.491c-0.823-0.002-1.489-0.669-1.491-1.491c-0.003-0.825,0.665-1.497,1.491-1.499
		c0.825-0.002,1.497,0.665,1.499,1.491C341.784,80.789,341.784,80.792,341.784,80.795z"/>
	<g>
		<path fill="#FFFFFF" d="M340.475,79.133c-0.771-0.062-1.954,0.949-2.165,2.06C339.15,80.919,340.065,79.56,340.475,79.133z"/>
	</g>
	<path fill="#232426" d="M358.755,78.802h35.768c1.024,0,1.854,0.83,1.854,1.854l0,0c0,1.024-0.831,1.854-1.854,1.854h-35.768
		c-1.024,0-1.854-0.83-1.854-1.854l0,0C356.9,79.632,357.731,78.802,358.755,78.802z"/>
	<circle fill="#2D2D2D" cx="376.639" cy="66.021" r="2.533"/>
	<rect x="275.845" y="107.257" fill="none" stroke="#333432" stroke-linejoin="round" width="201.588" height="356.754"/>
</g>
</svg>
